{
	"asset":
	{
		"version": "2.0",
		"generator": "Unreal Engine 4.27.0 glTF Exporter 1.0.6"
	},
	"scene": 0,
	"accessors": [
		{
			"bufferView": 0,
			"count": 360,
			"type": "SCALAR",
			"componentType": 5121
		},
		{
			"bufferView": 1,
			"count": 168,
			"type": "VEC3",
			"componentType": 5126,
			"min": [ 0,
				0,
				-4.57763662e-07
			],
			"max": [ 3,
				1.99999976,
				2.00000024
			]
		},
		{
			"bufferView": 2,
			"count": 168,
			"type": "VEC3",
			"componentType": 5126
		},
		{
			"bufferView": 3,
			"count": 168,
			"type": "VEC4",
			"componentType": 5126
		},
		{
			"bufferView": 4,
			"count": 168,
			"type": "VEC2",
			"componentType": 5126
		},
		{
			"bufferView": 5,
			"count": 168,
			"type": "VEC2",
			"componentType": 5126
		},
		{
			"bufferView": 6,
			"count": 84,
			"type": "SCALAR",
			"componentType": 5121
		},
		{
			"bufferView": 7,
			"count": 50,
			"type": "VEC3",
			"componentType": 5126,
			"min": [ 0,
				0,
				-0
			],
			"max": [ 5.5999999,
				2.5999999,
				2.5
			]
		},
		{
			"bufferView": 8,
			"count": 50,
			"type": "VEC3",
			"componentType": 5126
		},
		{
			"bufferView": 9,
			"count": 50,
			"type": "VEC4",
			"componentType": 5126
		},
		{
			"bufferView": 10,
			"count": 50,
			"type": "VEC2",
			"componentType": 5126
		},
		{
			"bufferView": 11,
			"count": 50,
			"type": "VEC2",
			"componentType": 5126
		},
		{
			"bufferView": 12,
			"count": 50,
			"type": "VEC2",
			"componentType": 5126
		},
		{
			"bufferView": 13,
			"count": 84,
			"type": "SCALAR",
			"componentType": 5121
		},
		{
			"bufferView": 14,
			"count": 40,
			"type": "VEC3",
			"componentType": 5126,
			"min": [ 0,
				0,
				-2.70000005
			],
			"max": [ 8.19999981,
				2.19999981,
				-0
			]
		},
		{
			"bufferView": 15,
			"count": 40,
			"type": "VEC3",
			"componentType": 5126
		},
		{
			"bufferView": 16,
			"count": 40,
			"type": "VEC4",
			"componentType": 5126
		},
		{
			"bufferView": 17,
			"count": 40,
			"type": "VEC2",
			"componentType": 5126
		},
		{
			"bufferView": 18,
			"count": 40,
			"type": "VEC2",
			"componentType": 5126
		},
		{
			"bufferView": 19,
			"count": 84,
			"type": "SCALAR",
			"componentType": 5121
		},
		{
			"bufferView": 20,
			"count": 40,
			"type": "VEC3",
			"componentType": 5126,
			"min": [ 0,
				0,
				-0
			],
			"max": [ 8.19999981,
				2.19999981,
				2.70000005
			]
		},
		{
			"bufferView": 21,
			"count": 40,
			"type": "VEC3",
			"componentType": 5126
		},
		{
			"bufferView": 22,
			"count": 40,
			"type": "VEC4",
			"componentType": 5126
		},
		{
			"bufferView": 23,
			"count": 40,
			"type": "VEC2",
			"componentType": 5126
		},
		{
			"bufferView": 24,
			"count": 40,
			"type": "VEC2",
			"componentType": 5126
		},
		{
			"bufferView": 25,
			"count": 60,
			"type": "SCALAR",
			"componentType": 5121
		},
		{
			"bufferView": 26,
			"count": 38,
			"type": "VEC3",
			"componentType": 5126,
			"min": [ 0,
				0,
				-4.19999933
			],
			"max": [ 2.00000024,
				3,
				-0
			]
		},
		{
			"bufferView": 27,
			"count": 38,
			"type": "VEC3",
			"componentType": 5126
		},
		{
			"bufferView": 28,
			"count": 38,
			"type": "VEC4",
			"componentType": 5126
		},
		{
			"bufferView": 29,
			"count": 38,
			"type": "VEC2",
			"componentType": 5126
		},
		{
			"bufferView": 30,
			"count": 38,
			"type": "VEC2",
			"componentType": 5126
		},
		{
			"bufferView": 31,
			"count": 38,
			"type": "VEC2",
			"componentType": 5126
		},
		{
			"bufferView": 32,
			"count": 612,
			"type": "SCALAR",
			"componentType": 5121
		},
		{
			"bufferView": 33,
			"count": 138,
			"type": "VEC3",
			"componentType": 5126,
			"min": [ -0.5,
				-0.5,
				-0.5
			],
			"max": [ 0.5,
				0.5,
				0.5
			]
		},
		{
			"bufferView": 34,
			"count": 138,
			"type": "VEC3",
			"componentType": 5126
		},
		{
			"bufferView": 35,
			"count": 138,
			"type": "VEC4",
			"componentType": 5126
		},
		{
			"bufferView": 36,
			"count": 138,
			"type": "VEC2",
			"componentType": 5126
		},
		{
			"bufferView": 37,
			"count": 138,
			"type": "VEC2",
			"componentType": 5126
		},
		{
			"bufferView": 38,
			"count": 384,
			"type": "SCALAR",
			"componentType": 5121
		},
		{
			"bufferView": 39,
			"count": 110,
			"type": "VEC3",
			"componentType": 5126,
			"min": [ -20,
				-2,
				-20
			],
			"max": [ 20,
				1.22464669e-15,
				20
			]
		},
		{
			"bufferView": 40,
			"count": 110,
			"type": "VEC3",
			"componentType": 5126
		},
		{
			"bufferView": 41,
			"count": 110,
			"type": "VEC4",
			"componentType": 5126
		},
		{
			"bufferView": 42,
			"count": 110,
			"type": "VEC2",
			"componentType": 5126
		},
		{
			"bufferView": 43,
			"count": 36,
			"type": "SCALAR",
			"componentType": 5121
		},
		{
			"bufferView": 44,
			"count": 24,
			"type": "VEC3",
			"componentType": 5126,
			"min": [ -0.5,
				-0.5,
				-0.5
			],
			"max": [ 0.5,
				0.5,
				0.5
			]
		},
		{
			"bufferView": 45,
			"count": 24,
			"type": "VEC3",
			"componentType": 5126
		},
		{
			"bufferView": 46,
			"count": 24,
			"type": "VEC4",
			"componentType": 5126
		},
		{
			"bufferView": 47,
			"count": 24,
			"type": "VEC2",
			"componentType": 5126
		},
		{
			"bufferView": 48,
			"count": 24,
			"type": "VEC2",
			"componentType": 5126
		}
	],
	"buffers": [
		{
			"uri": "ThirdPersonExampleMap.bin",
			"byteLength": 35576
		}
	],
	"bufferViews": [
		{
			"buffer": 0,
			"byteLength": 360,
			"target": 34963
		},
		{
			"buffer": 0,
			"byteLength": 2016,
			"byteOffset": 360,
			"target": 34962
		},
		{
			"buffer": 0,
			"byteLength": 2016,
			"byteOffset": 2376,
			"target": 34962
		},
		{
			"buffer": 0,
			"byteLength": 2688,
			"byteOffset": 4392,
			"target": 34962
		},
		{
			"buffer": 0,
			"byteLength": 1344,
			"byteOffset": 7080,
			"target": 34962
		},
		{
			"buffer": 0,
			"byteLength": 1344,
			"byteOffset": 8424,
			"target": 34962
		},
		{
			"buffer": 0,
			"byteLength": 84,
			"byteOffset": 9768,
			"target": 34963
		},
		{
			"buffer": 0,
			"byteLength": 600,
			"byteOffset": 9852,
			"target": 34962
		},
		{
			"buffer": 0,
			"byteLength": 600,
			"byteOffset": 10452,
			"target": 34962
		},
		{
			"buffer": 0,
			"byteLength": 800,
			"byteOffset": 11052,
			"target": 34962
		},
		{
			"buffer": 0,
			"byteLength": 400,
			"byteOffset": 11852,
			"target": 34962
		},
		{
			"buffer": 0,
			"byteLength": 400,
			"byteOffset": 12252,
			"target": 34962
		},
		{
			"buffer": 0,
			"byteLength": 400,
			"byteOffset": 12652,
			"target": 34962
		},
		{
			"buffer": 0,
			"byteLength": 84,
			"byteOffset": 13052,
			"target": 34963
		},
		{
			"buffer": 0,
			"byteLength": 480,
			"byteOffset": 13136,
			"target": 34962
		},
		{
			"buffer": 0,
			"byteLength": 480,
			"byteOffset": 13616,
			"target": 34962
		},
		{
			"buffer": 0,
			"byteLength": 640,
			"byteOffset": 14096,
			"target": 34962
		},
		{
			"buffer": 0,
			"byteLength": 320,
			"byteOffset": 14736,
			"target": 34962
		},
		{
			"buffer": 0,
			"byteLength": 320,
			"byteOffset": 15056,
			"target": 34962
		},
		{
			"buffer": 0,
			"byteLength": 84,
			"byteOffset": 15376,
			"target": 34963
		},
		{
			"buffer": 0,
			"byteLength": 480,
			"byteOffset": 15460,
			"target": 34962
		},
		{
			"buffer": 0,
			"byteLength": 480,
			"byteOffset": 15940,
			"target": 34962
		},
		{
			"buffer": 0,
			"byteLength": 640,
			"byteOffset": 16420,
			"target": 34962
		},
		{
			"buffer": 0,
			"byteLength": 320,
			"byteOffset": 17060,
			"target": 34962
		},
		{
			"buffer": 0,
			"byteLength": 320,
			"byteOffset": 17380,
			"target": 34962
		},
		{
			"buffer": 0,
			"byteLength": 60,
			"byteOffset": 17700,
			"target": 34963
		},
		{
			"buffer": 0,
			"byteLength": 456,
			"byteOffset": 17760,
			"target": 34962
		},
		{
			"buffer": 0,
			"byteLength": 456,
			"byteOffset": 18216,
			"target": 34962
		},
		{
			"buffer": 0,
			"byteLength": 608,
			"byteOffset": 18672,
			"target": 34962
		},
		{
			"buffer": 0,
			"byteLength": 304,
			"byteOffset": 19280,
			"target": 34962
		},
		{
			"buffer": 0,
			"byteLength": 304,
			"byteOffset": 19584,
			"target": 34962
		},
		{
			"buffer": 0,
			"byteLength": 304,
			"byteOffset": 19888,
			"target": 34962
		},
		{
			"buffer": 0,
			"byteLength": 612,
			"byteOffset": 20192,
			"target": 34963
		},
		{
			"buffer": 0,
			"byteLength": 1656,
			"byteOffset": 20804,
			"target": 34962
		},
		{
			"buffer": 0,
			"byteLength": 1656,
			"byteOffset": 22460,
			"target": 34962
		},
		{
			"buffer": 0,
			"byteLength": 2208,
			"byteOffset": 24116,
			"target": 34962
		},
		{
			"buffer": 0,
			"byteLength": 1104,
			"byteOffset": 26324,
			"target": 34962
		},
		{
			"buffer": 0,
			"byteLength": 1104,
			"byteOffset": 27428,
			"target": 34962
		},
		{
			"buffer": 0,
			"byteLength": 384,
			"byteOffset": 28532,
			"target": 34963
		},
		{
			"buffer": 0,
			"byteLength": 1320,
			"byteOffset": 28916,
			"target": 34962
		},
		{
			"buffer": 0,
			"byteLength": 1320,
			"byteOffset": 30236,
			"target": 34962
		},
		{
			"buffer": 0,
			"byteLength": 1760,
			"byteOffset": 31556,
			"target": 34962
		},
		{
			"buffer": 0,
			"byteLength": 880,
			"byteOffset": 33316,
			"target": 34962
		},
		{
			"buffer": 0,
			"byteLength": 36,
			"byteOffset": 34196,
			"target": 34963
		},
		{
			"buffer": 0,
			"byteLength": 288,
			"byteOffset": 34232,
			"target": 34962
		},
		{
			"buffer": 0,
			"byteLength": 288,
			"byteOffset": 34520,
			"target": 34962
		},
		{
			"buffer": 0,
			"byteLength": 384,
			"byteOffset": 34808,
			"target": 34962
		},
		{
			"buffer": 0,
			"byteLength": 192,
			"byteOffset": 35192,
			"target": 34962
		},
		{
			"buffer": 0,
			"byteLength": 192,
			"byteOffset": 35384,
			"target": 34962
		}
	],
	"cameras": [
		{
			"name": "Camera",
			"type": "perspective",
			"perspective":
			{
				"yfov": 1.02477884,
				"zfar": 20971.5195,
				"znear": 0.099999994
			}
		}
	],
	"materials": [
		{
			"name": "RampMaterial",
			"pbrMetallicRoughness":
			{
				"baseColorFactor": [ 0.330000013,
					0.330000013,
					0.330000013,
					1
				],
				"metallicFactor": 0,
				"roughnessFactor": 0.699999988
			}
		},
		{
			"name": "CubeMaterial",
			"pbrMetallicRoughness":
			{
				"baseColorFactor": [ 0.180000007,
					0.180000007,
					0.180000007,
					1
				],
				"metallicFactor": 0,
				"roughnessFactor": 0.699999988
			}
		}
	],
	"meshes": [
		{
			"name": "Linear_Stair_StaticMesh",
			"primitives": [
				{
					"attributes":
					{
						"POSITION": 1,
						"NORMAL": 2,
						"TANGENT": 3,
						"TEXCOORD_0": 4,
						"TEXCOORD_1": 5
					},
					"indices": 0,
					"material": 0
				}
			]
		},
		{
			"name": "Bump_StaticMesh",
			"primitives": [
				{
					"attributes":
					{
						"POSITION": 7,
						"NORMAL": 8,
						"TANGENT": 9,
						"TEXCOORD_0": 10,
						"TEXCOORD_1": 11,
						"TEXCOORD_2": 12
					},
					"indices": 6,
					"material": 0
				}
			]
		},
		{
			"name": "LeftArm_StaticMesh",
			"primitives": [
				{
					"attributes":
					{
						"POSITION": 14,
						"NORMAL": 15,
						"TANGENT": 16,
						"TEXCOORD_0": 17,
						"TEXCOORD_1": 18
					},
					"indices": 13,
					"material": 0
				}
			]
		},
		{
			"name": "RightArm_StaticMesh",
			"primitives": [
				{
					"attributes":
					{
						"POSITION": 20,
						"NORMAL": 21,
						"TANGENT": 22,
						"TEXCOORD_0": 23,
						"TEXCOORD_1": 24
					},
					"indices": 19,
					"material": 0
				}
			]
		},
		{
			"name": "Ramp_StaticMesh",
			"primitives": [
				{
					"attributes":
					{
						"POSITION": 26,
						"NORMAL": 27,
						"TANGENT": 28,
						"TEXCOORD_0": 29,
						"TEXCOORD_1": 30,
						"TEXCOORD_2": 31
					},
					"indices": 25,
					"material": 0
				}
			]
		},
		{
			"name": "1M_Cube_Chamfer",
			"primitives": [
				{
					"attributes":
					{
						"POSITION": 33,
						"NORMAL": 34,
						"TANGENT": 35,
						"TEXCOORD_0": 36,
						"TEXCOORD_1": 37
					},
					"indices": 32,
					"material": 1
				}
			]
		},
		{
			"name": "TemplateFloor",
			"primitives": [
				{
					"attributes":
					{
						"POSITION": 39,
						"NORMAL": 40,
						"TANGENT": 41,
						"TEXCOORD_0": 42
					},
					"indices": 38,
					"material": 1
				}
			]
		},
		{
			"name": "1M_Cube",
			"primitives": [
				{
					"attributes":
					{
						"POSITION": 44,
						"NORMAL": 45,
						"TANGENT": 46,
						"TEXCOORD_0": 47,
						"TEXCOORD_1": 48
					},
					"indices": 43,
					"material": 1
				}
			]
		}
	],
	"nodes": [
		{
			"name": "LightmassImportanceVolume_0_BrushComponent0",
			"translation": [ -0.00021844804,
				16.2521439,
				-0.000141601558
			],
			"scale": [ 1.17996216,
				1.05417633,
				1
			]
		},
		{
			"name": "AtmosphericFog_1_AtmosphericFogComponent0",
			"translation": [ -0.310837537,
				10.2409973,
				5.41017437
			],
			"children": [ 2, 3 ]
		},
		{
			"name": "AtmosphericFog_1_Sprite",
			"scale": [ 0.5,
				0.5,
				0.5
			]
		},
		{
			"name": "AtmosphericFog_1_ArrowComponent0"
		},
		{
			"name": "SkySphereBlueprint_Base"
		},
		{
			"name": "SphereReflectionCapture_NewReflectionComponent",
			"translation": [ -0.159999996,
				5.11999989,
				-0.799999952
			],
			"children": [ 6, 7, 8, 9 ]
		},
		{
			"name": "SphereReflectionCapture_Sprite",
			"scale": [ 0.5,
				0.5,
				0.5
			]
		},
		{
			"name": "SphereReflectionCapture_CaptureOffset",
			"scale": [ 0.200000003,
				0.200000003,
				0.200000003
			]
		},
		{
			"name": "SphereReflectionCapture_DrawRadius0"
		},
		{
			"name": "SphereReflectionCapture_DrawRadius1"
		},
		{
			"name": "NetworkPlayerStart_CollisionCapsule",
			"translation": [ -9.69999981,
				2.02000666,
				-3.46443415
			],
			"children": [ 11, 12, 13 ]
		},
		{
			"name": "NetworkPlayerStart_Sprite",
			"scale": [ 0.5,
				0.5,
				0.5
			]
		},
		{
			"name": "NetworkPlayerStart_Sprite2"
		},
		{
			"name": "NetworkPlayerStart_Arrow"
		},
		{
			"name": "DocumentationActor1_SceneComp",
			"translation": [ -4,
				1.89999998,
				0.5
			],
			"scale": [ 19.75,
				19.75,
				38.25
			],
			"children": [ 15 ]
		},
		{
			"name": "DocumentationActor1_BillboardComponent"
		},
		{
			"name": "Linear_Stair_StaticMesh_StaticMeshComponent0",
			"translation": [ -3.89999986,
				1.25,
				2.79999995
			],
			"mesh": 0
		},
		{
			"name": "Bump_StaticMesh_StaticMeshComponent0",
			"translation": [ 1.68999994,
				0.939999998,
				-0.399999976
			],
			"mesh": 1
		},
		{
			"name": "LeftArm_StaticMesh_StaticMeshComponent0",
			"translation": [ -0.899999976,
				1.04999995,
				-0.399999976
			],
			"mesh": 2
		},
		{
			"name": "RightArm_StaticMesh_StaticMeshComponent0",
			"translation": [ -0.899999976,
				1.04999995,
				2.0999999
			],
			"mesh": 3
		},
		{
			"name": "Ramp_StaticMesh_StaticMeshComponent0",
			"translation": [ -0.899999976,
				1.04999995,
				-3.0999999
			],
			"mesh": 4
		},
		{
			"name": "CubeMesh_5_StaticMeshComponent0",
			"translation": [ -2.89999986,
				2.02280521,
				-4.69999981
			],
			"scale": [ 2,
				1.5,
				2
			],
			"mesh": 5
		},
		{
			"name": "LightSource_0_LightComponent0",
			"translation": [ 1,
				5.69999981,
				-2
			],
			"rotation": [ -0.0104296617,
				-0.0254772343,
				-0.547975123,
				0.83604151
			],
			"scale": [ 2.5,
				2.5,
				2.5
			],
			"children": [ 23, 24, 25 ]
		},
		{
			"name": "LightSource_0",
			"rotation": [ -0,
				-0.707106769,
				0,
				0.707106709
			],
			"extensions":
			{
				"KHR_lights_punctual":
				{
					"light": 0
				}
			}
		},
		{
			"name": "LightSource_0_ArrowComponent0"
		},
		{
			"name": "LightSource_0_BillboardComponent_0",
			"scale": [ 0.200000003,
				0.200000003,
				0.200000003
			]
		},
		{
			"name": "PostProcessVolume_0_BrushComponent0",
			"translation": [ -9.26168728,
				6.5999999,
				0.0615966581
			],
			"scale": [ 24.25,
				6.75,
				24
			]
		},
		{
			"name": "SkyLight_0_SkyLightComponent0",
			"translation": [ 0.301624745,
				0.200000599,
				0.0771370307
			],
			"children": [ 28, 29 ]
		},
		{
			"name": "SkyLight_0_Sprite"
		},
		{
			"name": "SkyLight_0_BillboardComponent_0"
		},
		{
			"name": "Floor_1_StaticMeshComponent0",
			"translation": [ -3.99751449,
				1.30277085,
				0
			],
			"scale": [ 0.75,
				1,
				0.75
			],
			"mesh": 6
		},
		{
			"name": "Wall7_4_StaticMeshComponent0",
			"translation": [ 10.7533436,
				5.3023448,
				0.000163389515
			],
			"rotation": [ 9.4843208e-06,
				0.707106769,
				9.48431989e-06,
				0.707106709
			],
			"scale": [ 30,
				8,
				0.5
			],
			"mesh": 7
		},
		{
			"name": "Wall9_StaticMeshComponent0",
			"translation": [ -18.7466564,
				5.3023448,
				0.000163389996
			],
			"rotation": [ 9.4843208e-06,
				0.707106769,
				9.48431989e-06,
				0.707106709
			],
			"scale": [ 30,
				8,
				0.5
			],
			"mesh": 7
		},
		{
			"name": "Wall10_StaticMeshComponent0",
			"translation": [ -3.99665999,
				5.3023448,
				-14.7498693
			],
			"scale": [ 29,
				8,
				0.5
			],
			"mesh": 7
		},
		{
			"name": "Wall11_StaticMeshComponent0",
			"translation": [ -3.99665999,
				5.3023448,
				14.7501307
			],
			"scale": [ 29,
				8,
				0.5
			],
			"mesh": 7
		},
		{
			"name": "TextRenderActor_1_NewTextRenderComponent",
			"translation": [ -4.80000067,
				1.30846405,
				0
			],
			"rotation": [ -0.707106709,
				-0.707106769,
				1.4329928e-06,
				1.43299269e-06
			],
			"children": [ 36 ]
		},
		{
			"name": "TextRenderActor_1_Sprite",
			"scale": [ 0.5,
				0.5,
				0.5
			]
		},
		{
			"name": "AbstractNavData-Default_SceneComp"
		},
		{
			"name": "BP_Camera_2_DefaultSceneRoot",
			"translation": [ -8.59999943,
				3.5,
				0
			],
			"rotation": [ 0,
				-0,
				-0.0871554837,
				0.99619472
			],
			"children": [ 39, 40 ]
		},
		{
			"name": "BP_Camera_2_BillboardComponent_49",
			"scale": [ 0.5,
				0.5,
				0.5
			]
		},
		{
			"name": "BP_Camera_2_SpringArm",
			"children": [ 41 ]
		},
		{
			"name": "BP_Camera_2_Camera",
			"children": [ 42, 43, 44 ]
		},
		{
			"name": "Camera",
			"rotation": [ -0,
				-0.707106769,
				0,
				0.707106709
			],
			"camera": 0
		},
		{
			"name": "BP_Camera_2_DrawFrustumComponent_49"
		},
		{
			"name": "BP_Camera_2_StaticMeshComponent_49"
		}
	],
	"scenes": [
		{
			"name": "ThirdPersonExampleMap",
			"nodes": [ 0, 1, 4, 5, 10, 14, 16, 17, 18, 19, 20, 21, 22, 26, 27, 30, 31, 32, 33, 34, 35, 37, 38 ]
		}
	],
	"extensions":
	{
		"KHR_lights_punctual":
		{
			"lights": [
				{
					"name": "LightSource_0",
					"type": "directional",
					"intensity": 2.75
				}
			]
		}
	},
	"extensionsUsed": [
		"KHR_lights_punctual"
	]
}